<mxfile host="app.diagrams.net" modified="2020-12-04T19:55:37.006Z" agent="5.0 (Macintosh; Intel Mac OS X 10_15_7) AppleWebKit/537.36 (KHTML, like Gecko) Chrome/83.0.4103.109 Safari/537.36" etag="Jwz-IFSxoBZeRii44C3E" version="13.10.4" type="github">
  <diagram id="C5RBs43oDa-KdzZeNtuy" name="Page-1">
    <mxGraphModel dx="1264" dy="859" grid="1" gridSize="10" guides="1" tooltips="1" connect="1" arrows="1" fold="1" page="1" pageScale="1" pageWidth="827" pageHeight="1169" math="0" shadow="0">
      <root>
        <mxCell id="WIyWlLk6GJQsqaUBKTNV-0" />
        <mxCell id="WIyWlLk6GJQsqaUBKTNV-1" parent="WIyWlLk6GJQsqaUBKTNV-0" />
        <mxCell id="LGYiTIAsWPdkLjdNCSbq-7" value="exit" style="rounded=1;whiteSpace=wrap;html=1;" vertex="1" parent="WIyWlLk6GJQsqaUBKTNV-1">
          <mxGeometry x="40" y="40" width="40" height="20" as="geometry" />
        </mxCell>
        <mxCell id="LGYiTIAsWPdkLjdNCSbq-9" value="0" style="edgeStyle=orthogonalEdgeStyle;rounded=0;orthogonalLoop=1;jettySize=auto;html=1;exitX=0;exitY=0.5;exitDx=0;exitDy=0;entryX=1;entryY=0.5;entryDx=0;entryDy=0;" edge="1" parent="WIyWlLk6GJQsqaUBKTNV-1" source="LGYiTIAsWPdkLjdNCSbq-8" target="LGYiTIAsWPdkLjdNCSbq-7">
          <mxGeometry relative="1" as="geometry" />
        </mxCell>
        <mxCell id="LGYiTIAsWPdkLjdNCSbq-14" value="1" style="edgeStyle=orthogonalEdgeStyle;rounded=0;orthogonalLoop=1;jettySize=auto;html=1;exitX=1;exitY=0.5;exitDx=0;exitDy=0;" edge="1" parent="WIyWlLk6GJQsqaUBKTNV-1" source="LGYiTIAsWPdkLjdNCSbq-8" target="LGYiTIAsWPdkLjdNCSbq-11">
          <mxGeometry relative="1" as="geometry" />
        </mxCell>
        <mxCell id="LGYiTIAsWPdkLjdNCSbq-16" value="2" style="edgeStyle=orthogonalEdgeStyle;rounded=0;orthogonalLoop=1;jettySize=auto;html=1;exitX=0.5;exitY=1;exitDx=0;exitDy=0;" edge="1" parent="WIyWlLk6GJQsqaUBKTNV-1" source="LGYiTIAsWPdkLjdNCSbq-8" target="LGYiTIAsWPdkLjdNCSbq-15">
          <mxGeometry relative="1" as="geometry" />
        </mxCell>
        <mxCell id="LGYiTIAsWPdkLjdNCSbq-8" value="start" style="rounded=1;whiteSpace=wrap;html=1;" vertex="1" parent="WIyWlLk6GJQsqaUBKTNV-1">
          <mxGeometry x="120" y="40" width="40" height="20" as="geometry" />
        </mxCell>
        <mxCell id="LGYiTIAsWPdkLjdNCSbq-19" value="1" style="edgeStyle=orthogonalEdgeStyle;rounded=0;orthogonalLoop=1;jettySize=auto;html=1;" edge="1" parent="WIyWlLk6GJQsqaUBKTNV-1" source="LGYiTIAsWPdkLjdNCSbq-11" target="LGYiTIAsWPdkLjdNCSbq-17">
          <mxGeometry relative="1" as="geometry" />
        </mxCell>
        <mxCell id="LGYiTIAsWPdkLjdNCSbq-22" value="2" style="edgeStyle=orthogonalEdgeStyle;rounded=0;orthogonalLoop=1;jettySize=auto;html=1;exitX=0.5;exitY=1;exitDx=0;exitDy=0;entryX=0;entryY=0.5;entryDx=0;entryDy=0;" edge="1" parent="WIyWlLk6GJQsqaUBKTNV-1" source="LGYiTIAsWPdkLjdNCSbq-11" target="LGYiTIAsWPdkLjdNCSbq-20">
          <mxGeometry relative="1" as="geometry" />
        </mxCell>
        <mxCell id="LGYiTIAsWPdkLjdNCSbq-23" value="0" style="edgeStyle=orthogonalEdgeStyle;rounded=0;orthogonalLoop=1;jettySize=auto;html=1;exitX=0.5;exitY=0;exitDx=0;exitDy=0;entryX=0.5;entryY=0;entryDx=0;entryDy=0;" edge="1" parent="WIyWlLk6GJQsqaUBKTNV-1" source="LGYiTIAsWPdkLjdNCSbq-11" target="LGYiTIAsWPdkLjdNCSbq-8">
          <mxGeometry relative="1" as="geometry" />
        </mxCell>
        <mxCell id="LGYiTIAsWPdkLjdNCSbq-11" value="user" style="rounded=1;whiteSpace=wrap;html=1;" vertex="1" parent="WIyWlLk6GJQsqaUBKTNV-1">
          <mxGeometry x="200" y="40" width="40" height="20" as="geometry" />
        </mxCell>
        <mxCell id="LGYiTIAsWPdkLjdNCSbq-15" value="manager" style="rounded=1;whiteSpace=wrap;html=1;" vertex="1" parent="WIyWlLk6GJQsqaUBKTNV-1">
          <mxGeometry x="40" y="100" width="60" height="20" as="geometry" />
        </mxCell>
        <mxCell id="LGYiTIAsWPdkLjdNCSbq-17" value="sign in" style="rounded=1;whiteSpace=wrap;html=1;" vertex="1" parent="WIyWlLk6GJQsqaUBKTNV-1">
          <mxGeometry x="280" y="40" width="50" height="20" as="geometry" />
        </mxCell>
        <mxCell id="LGYiTIAsWPdkLjdNCSbq-20" value="sign up" style="rounded=1;whiteSpace=wrap;html=1;" vertex="1" parent="WIyWlLk6GJQsqaUBKTNV-1">
          <mxGeometry x="280" y="80" width="50" height="20" as="geometry" />
        </mxCell>
      </root>
    </mxGraphModel>
  </diagram>
</mxfile>
